<svg width="237" height="110" viewBox="0 0 237 110" fill="none" xmlns="http://www.w3.org/2000/svg">
	<g clip-path="url(#clip0_213_33)">
		<path d="M0.704102 70L12.295 0.181824H58.5223L56.4768 12.3523H25.0109L22.2836 28.9886H50.6814L48.6359 41.1591H20.2382L15.4655 70H0.704102Z" fill="white" />
		<path d="M56.3358 70H40.5176L76.2108 0.181824H95.2335L107.711 70H91.8926L83.404 16.1364H82.8585L56.3358 70ZM59.9494 42.5568H97.3131L95.3358 54.0796H57.9722L59.9494 42.5568Z" fill="white" />
		<path d="M176.633 12.3523L178.678 0.181824H236.019L233.974 12.3523H212.599L203.053 70H188.463L198.008 12.3523H176.633Z" fill="white" />
		<path d="M115.161 36.1263L134.394 0H169L142.763 36.1263L163.925 47.0211L101 85L137.774 48.8737L115.161 36.1263Z" fill="#456EF4" />
	</g>
	<path d="M0 109.667L4.31734 85.3327H14.0695C16.0673 85.3327 17.6884 85.6575 18.9328 86.307C20.1772 86.9566 21.0449 87.8676 21.5359 89.0399C22.0269 90.2044 22.1327 91.5629 21.8534 93.1155C21.5825 94.6681 20.9899 96.0187 20.0757 97.1673C19.1699 98.308 17.972 99.1912 16.4821 99.817C15.0007 100.443 13.261 100.756 11.2632 100.756H4.31734L4.97764 97.096H11.3013C12.4695 97.096 13.4515 96.9455 14.2472 96.6445C15.043 96.3356 15.6694 95.888 16.1266 95.3018C16.5921 94.7077 16.9011 93.9789 17.0535 93.1155C17.1974 92.2521 17.1424 91.5154 16.8884 90.9054C16.6429 90.2875 16.1731 89.8202 15.479 89.5033C14.7933 89.1785 13.8663 89.0162 12.6981 89.0162H8.38073L4.71099 109.667H0ZM15.3901 98.6407L19.8725 109.667H14.6155L10.2473 98.6407H15.3901Z" fill="white" />
	<path d="M32.4245 85.3327L28.1072 109.667H23.3962L27.7135 85.3327H32.4245Z" fill="white" />
	<path d="M33.2086 109.667L37.526 85.3327H47.2781C49.2759 85.3327 50.8928 85.6812 52.1288 86.3783C53.3647 87.0675 54.2239 88.022 54.7065 89.2419C55.189 90.4539 55.2906 91.8362 55.0112 93.3888C54.7403 94.9493 54.1435 96.3356 53.2208 97.5475C52.3065 98.7595 51.1002 99.714 49.6018 100.411C48.1035 101.1 46.3511 101.445 44.3448 101.445H37.8815L38.5291 97.8208H44.3575C45.5258 97.8208 46.5162 97.6307 47.3289 97.2505C48.15 96.8702 48.7976 96.3474 49.2717 95.682C49.7458 95.0166 50.059 94.2522 50.2113 93.3888C50.3553 92.5253 50.3087 91.7649 50.0717 91.1074C49.8346 90.4499 49.3733 89.939 48.6876 89.5746C48.0104 89.2023 47.0834 89.0162 45.9067 89.0162H41.5894L37.9196 109.667H33.2086Z" fill="white" />
	<path d="M56.6271 109.667H51.5986L65.0713 85.3327H70.887L75.7376 109.667H70.7092L67.2172 90.3232H67.0141L56.6271 109.667ZM58.481 100.126H72.1949L71.56 103.667H57.8461L58.481 100.126Z" fill="white" />
	<path d="M79.163 109.667L83.4803 85.3327H93.2324C95.2303 85.3327 96.8514 85.6575 98.0958 86.307C99.3402 86.9566 100.208 87.8676 100.699 89.0399C101.19 90.2044 101.296 91.5629 101.016 93.1155C100.745 94.6681 100.153 96.0187 99.2386 97.1673C98.3328 98.308 97.135 99.1912 95.6451 99.817C94.1636 100.443 92.424 100.756 90.4261 100.756H83.4803L84.1406 97.096H90.4642C91.6325 97.096 92.6144 96.9455 93.4102 96.6445C94.2059 96.3356 94.8324 95.888 95.2895 95.3018C95.7551 94.7077 96.0641 93.9789 96.2165 93.1155C96.3604 92.2521 96.3054 91.5154 96.0514 90.9054C95.8059 90.2875 95.3361 89.8202 94.6419 89.5033C93.9562 89.1785 93.0293 89.0162 91.861 89.0162H87.5437L83.8739 109.667H79.163ZM94.553 98.6407L99.0354 109.667H93.7784L89.4103 98.6407H94.553Z" fill="white" />
	<path d="M105.899 109.667H100.87L114.343 85.3327H120.159L125.009 109.667H119.981L116.489 90.3232H116.286L105.899 109.667ZM107.753 100.126H121.467L120.832 103.667H107.118L107.753 100.126Z" fill="white" />
	<path d="M127.952 109.667L128.46 106.923L144.955 89.028H131.533L132.193 85.3327H151.444L150.974 88.0775L134.441 105.972H147.863L147.202 109.667H127.952Z" fill="white" />
	<path d="M160.789 85.3327L156.472 109.667H151.761L156.078 85.3327H160.789Z" fill="white" />
	<path d="M186.919 97.7852C186.462 100.368 185.56 102.57 184.214 104.392C182.877 106.206 181.243 107.596 179.313 108.562C177.391 109.521 175.321 110 173.103 110C170.775 110 168.777 109.493 167.11 108.479C165.442 107.457 164.24 105.996 163.504 104.095C162.776 102.193 162.649 99.9121 163.123 97.2505C163.58 94.676 164.477 92.4739 165.815 90.644C167.152 88.8142 168.79 87.416 170.729 86.4496C172.667 85.4832 174.758 85 177.002 85C179.313 85 181.294 85.5109 182.944 86.5328C184.604 87.5467 185.797 89.0082 186.525 90.9173C187.262 92.8264 187.393 95.1157 186.919 97.7852ZM182.284 97.2505C182.597 95.4523 182.568 93.9354 182.195 92.6996C181.831 91.4639 181.184 90.5331 180.252 89.9073C179.321 89.2736 178.174 88.9568 176.811 88.9568C175.338 88.9568 173.975 89.3013 172.722 89.9905C171.478 90.6717 170.42 91.6698 169.548 92.9848C168.684 94.2997 168.092 95.8999 167.77 97.7852C167.431 99.5913 167.453 101.108 167.834 102.336C168.215 103.564 168.875 104.491 169.814 105.116C170.754 105.734 171.901 106.043 173.256 106.043C174.72 106.043 176.075 105.703 177.319 105.021C178.563 104.34 179.617 103.346 180.481 102.039C181.353 100.732 181.954 99.1358 182.284 97.2505Z" fill="white" />
	<path d="M214.953 85.3327L210.636 109.667H206.445L197.138 93.0917H196.934L193.976 109.667H189.265L193.582 85.3327H197.798L207.093 101.92H207.334L210.267 85.3327H214.953Z" fill="white" />
	<path d="M215.769 109.667L220.086 85.3327H237L236.34 89.028H224.137L222.969 95.6345H234.295L233.635 99.3298H222.308L221.14 105.972H233.445L232.784 109.667H215.769Z" fill="white" />
	<defs>
		<clipPath id="clip0_213_33">
			<rect width="237" height="85" fill="white" />
		</clipPath>
	</defs>
</svg>
