<svg width="237" height="85" viewBox="0 0 237 85" fill="none" xmlns="http://www.w3.org/2000/svg">
	<path d="M0.704102 70L12.295 0.181824H58.5223L56.4768 12.3523H25.0109L22.2836 28.9886H50.6814L48.6359 41.1591H20.2382L15.4655 70H0.704102Z" fill="black" />
	<path d="M56.3357 70H40.5175L76.2107 0.181824H95.2334L107.711 70H91.8925L83.4039 16.1364H82.8584L56.3357 70ZM59.9493 42.5568H97.313L95.3357 54.0796H57.9721L59.9493 42.5568Z" fill="black" />
	<path d="M176.633 12.3523L178.678 0.181824H236.019L233.974 12.3523H212.599L203.053 70H188.463L198.008 12.3523H176.633Z" fill="black" />
	<path d="M115.161 36.1263L134.394 0H169L142.763 36.1263L163.925 47.0211L101 85L137.774 48.8737L115.161 36.1263Z" fill="#456EF4" />
</svg>
